<svg version="1.1"
     baseProfile="full"
     width="1899" height="2600"
     xmlns="http://www.w3.org/2000/svg">


     <defs>
    <radialGradient id="grad1"  cx="50%" cy="50%" r="50%" fx="50%" fy="50%">
      <stop offset="60%" style="stop-color:white;
      stop-opacity:1" />
      <stop offset="100%" style="stop-color:#B40404; stop-opacity:0" />
    </radialGradient>
  </defs>

    <rect width="100%" height="100%" fill="#B40404" />

    
    <circle cx="1460" cy="450" r="284" fill="url(#grad1)" />
    <text x="1380" y="450" fill="black" font-size="40">Comp Sci</text>
	<text x="1360" y="500" fill="black" font-size="40">students 142</text>


    <circle cx="500" cy="450" r="684" fill="url(#grad1)" />
    <text x="420" y="460" fill="black" font-size="70">Math</text>
    <text x="310" y="550" fill="black" font-size="70">342 students</text>
    


    <!--                         MATH                              -->

    <!--141-->

    <circle cx="500" cy="1250" r="250" fill="url(#grad1)" />
    <text x="460" y="1275" fill="black" font-size="50">141</text>


    <!--101-->

    <circle cx="500" cy="1560" r="110" fill="url(#grad1)" />
    <text x="470" y="1570" fill="black" font-size="40">101</text>


    <!--202-->

    <circle cx="500" cy="1730" r="72" fill="url(#grad1)" />
    <text x="475" y="1740" fill="black" font-size="30">202</text>


     <!--221-->

    <circle cx="500" cy="1850" r="60" fill="url(#grad1)" />
    <text x="480" y="1860" fill="black" font-size="28">221</text>


    <!--321-->

    <circle cx="500" cy="1955" r="54" fill="url(#grad1)" />
    <text x="480" y="1965" fill="black" font-size="25">321</text>


    <!--104-->

    <circle cx="500" cy="2050" r="48" fill="url(#grad1)" />
    <text x="482" y="2060" fill="black" font-size="22">104</text>


	<!--133-->

    <circle cx="500" cy="2135" r="46" fill="url(#grad1)" />
    <text x="482" y="2145" fill="black" font-size="22">133</text>


    <!--125-->

    <circle cx="500" cy="2215" r="44" fill="url(#grad1)" />
    <text x="482" y="2225" fill="black" font-size="22">125</text>


    <!--251-->

    <circle cx="500" cy="2275" r="22" fill="url(#grad1)" />
    <text x="490" y="2280" fill="black" font-size="14">251</text>


    <!--331-->

    <circle cx="500" cy="2315" r="22" fill="url(#grad1)" />
    <text x="490" y="2320" fill="black" font-size="14">331</text>



<!--                       Comp Sci                           -->

	<!--161-->

    <circle cx="1465" cy="800" r="68" fill="url(#grad1)" />
    <text x="1440" y="810" fill="black" font-size="30">161</text>


    <!--115-->

    <circle cx="1465" cy="915" r="62" fill="url(#grad1)" />
    <text x="1440" y="925" fill="black" font-size="30">115</text>


    <!--215-->

    <circle cx="1465" cy="1005" r="46" fill="url(#grad1)" />
    <text x="1445" y="1015" fill="black" font-size="25">215</text>


    <!--111-->

    <circle cx="1465" cy="1080" r="42" fill="url(#grad1)" />
    <text x="1445" y="1090" fill="black" font-size="25">111</text>


    <!--398-->

    <circle cx="1465" cy="1152" r="36" fill="url(#grad1)" />
    <text x="1448" y="1162" fill="black" font-size="22">398</text>


    <!--335-->

    <circle cx="1465" cy="1210" r="30" fill="url(#grad1)" />
    <text x="1450" y="1218" fill="black" font-size="20">335</text>





</svg>